<?xml version="1.0" encoding="UTF-8" standalone="no"?>
<!-- Created with Inkscape then cleaned up manually -->

<svg
   xmlns:dc="http://purl.org/dc/elements/1.1/"
   xmlns:cc="http://creativecommons.org/ns#"
   xmlns:rdf="http://www.w3.org/1999/02/22-rdf-syntax-ns#"
   xmlns:svg="http://www.w3.org/2000/svg"
   xmlns="http://www.w3.org/2000/svg"
   width="1200"
   height="615"
   viewBox="0 0 1200 615"
   version="1.1">
  <g
     transform="translate(0,-123.25)" style="fill:#22adc3;fill-stroke:none" >
    <rect
       width="99"
       height="322.09753"
       x="16"
       y="403.67407" />
    <rect
       width="110"
       height="322.09753"
       x="205"
       y="403.67407" />
    <rect
       width="115"
       height="79"
       x="102"
       y="519" />
    <path
       d="M 626.25744,452.02771 C 550.00413,368.24698 329.0348,395.31342 328.33672,561.55301 327.52341,755.23437 563.41964,752.21702 638.73579,682.09738 V 540.15609 H 490.55533 v 69.41085 h 49.91342 v 22.61702 C 517.05274,646.2947 434.23851,649.1998 436.74242,561.55301 438.757,491.03463 515.64626,477.38568 570.10484,519.09887 Z"/>
    <path
       d="m 639.51569,407.57357 h 311.95888 l 62.39173,172.35728 59.2722,-171.57738 h 113.0851 L 1062.22,724.99173 H 963.17302 L 872.70495,491.80247 H 820.45184 V 724.21183 H 726.08428 V 491.80247 h -87.34849 z"/>
    <path
       d="M 17.157738,384.17666 H 790.81575 L 403.98674,135.38946 Z"/>
  </g>
</svg>
